<svg version="1.1" id="Layer_1" xmlns="http://www.w3.org/2000/svg" xmlns:xlink="http://www.w3.org/1999/xlink" x="0px" y="0px"
	 width="100%" viewBox="0 0 128 128" enable-background="new 0 0 128 128" xml:space="preserve">
<path fill="#4C6971" opacity="1.000000" stroke="none" 
	d="
M79.000000,129.000000 
	C52.666668,129.000000 26.833334,129.000000 1.000000,129.000000 
	C1.000000,86.333336 1.000000,43.666668 1.000000,1.000000 
	C43.666668,1.000000 86.333336,1.000000 129.000000,1.000000 
	C129.000000,43.666668 129.000000,86.333336 129.000000,129.000000 
	C112.500000,129.000000 96.000000,129.000000 79.000000,129.000000 
M29.000000,73.492157 
	C29.000000,64.747452 29.000000,56.002739 29.000000,46.740475 
	C42.857674,46.740475 55.779774,46.740475 68.636658,46.740475 
	C69.109467,43.320042 69.505463,40.455368 69.982971,37.000969 
	C57.143368,37.000969 44.844837,36.968243 32.546577,37.011448 
	C22.909925,37.045303 19.052414,40.889221 19.011765,50.494347 
	C18.965214,61.493408 18.864008,72.495369 19.070398,83.490753 
	C19.147619,87.604713 18.253283,91.020538 16.028423,94.575333 
	C14.548244,96.940308 13.781254,100.738693 14.640682,103.222206 
	C15.183168,104.789848 19.307158,105.865898 21.833761,105.883881 
	C48.163982,106.071404 74.496658,106.079369 100.826668,105.877228 
	C103.486877,105.856804 108.204315,104.420662 108.381317,103.144257 
	C108.830322,99.906494 107.351494,96.355835 106.429428,92.989418 
	C105.809914,90.727585 104.274017,88.605659 104.112663,86.352074 
	C103.753807,81.340057 104.000725,76.284676 104.000725,71.078453 
	C100.115601,71.644859 97.245453,72.063293 93.852707,72.557915 
	C93.852707,77.685364 93.852707,82.601753 93.852707,87.671532 
	C72.041641,87.671532 50.807285,87.671532 29.000000,87.671532 
	C29.000000,83.067459 29.000000,78.777351 29.000000,73.492157 
M75.852936,34.519791 
	C71.769279,42.376366 71.181808,50.515133 75.904045,58.042175 
	C78.090927,61.527981 77.893623,63.127972 74.781685,65.127251 
	C74.080864,65.577492 73.668777,66.477142 72.221115,68.317314 
	C75.860649,67.813995 78.197357,67.378098 80.553635,67.197838 
	C82.753067,67.029572 85.189400,66.524170 87.147820,67.219513 
	C96.840828,70.661018 104.724274,68.275780 111.657898,60.912334 
	C120.932068,51.063225 118.195496,33.327564 106.348503,26.704250 
	C97.979897,22.025597 83.864479,22.288595 75.852936,34.519791 
z"/>
<path fill="#000000" opacity="1.000000" stroke="none" 
	d="
M29.000000,73.989700 
	C29.000000,78.777351 29.000000,83.067459 29.000000,87.671532 
	C50.807285,87.671532 72.041641,87.671532 93.852707,87.671532 
	C93.852707,82.601753 93.852707,77.685364 93.852707,72.557915 
	C97.245453,72.063293 100.115601,71.644859 104.000725,71.078453 
	C104.000725,76.284676 103.753807,81.340057 104.112663,86.352074 
	C104.274017,88.605659 105.809914,90.727585 106.429428,92.989418 
	C107.351494,96.355835 108.830322,99.906494 108.381317,103.144257 
	C108.204315,104.420662 103.486877,105.856804 100.826668,105.877228 
	C74.496658,106.079369 48.163982,106.071404 21.833761,105.883881 
	C19.307158,105.865898 15.183168,104.789848 14.640682,103.222206 
	C13.781254,100.738693 14.548244,96.940308 16.028423,94.575333 
	C18.253283,91.020538 19.147619,87.604713 19.070398,83.490753 
	C18.864008,72.495369 18.965214,61.493408 19.011765,50.494347 
	C19.052414,40.889221 22.909925,37.045303 32.546577,37.011448 
	C44.844837,36.968243 57.143368,37.000969 69.982971,37.000969 
	C69.505463,40.455368 69.109467,43.320042 68.636658,46.740475 
	C55.779774,46.740475 42.857674,46.740475 29.000000,46.740475 
	C29.000000,56.002739 29.000000,64.747452 29.000000,73.989700 
M62.387035,98.000000 
	C59.592697,98.000000 56.798359,98.000000 54.004017,98.000000 
	C54.028484,98.428459 54.052948,98.856911 54.077412,99.285370 
	C59.054684,99.285370 64.031952,99.285370 69.009224,99.285370 
	C69.009766,98.856926 69.010300,98.428490 69.010834,98.000046 
	C67.099174,98.000046 65.187508,98.000046 62.387035,98.000000 
z"/>
<path fill="#000000" opacity="1.000000" stroke="none" 
	d="
M75.965408,34.160877 
	C83.864479,22.288595 97.979897,22.025597 106.348503,26.704250 
	C118.195496,33.327564 120.932068,51.063225 111.657898,60.912334 
	C104.724274,68.275780 96.840828,70.661018 87.147820,67.219513 
	C85.189400,66.524170 82.753067,67.029572 80.553635,67.197838 
	C78.197357,67.378098 75.860649,67.813995 72.221115,68.317314 
	C73.668777,66.477142 74.080864,65.577492 74.781685,65.127251 
	C77.893623,63.127972 78.090927,61.527981 75.904045,58.042175 
	C71.181808,50.515133 71.769279,42.376366 75.965408,34.160877 
M102.422157,29.820850 
	C96.790695,26.891777 91.336792,27.648960 85.939384,30.533550 
	C79.503761,33.973007 75.597771,42.488678 77.105385,49.947876 
	C78.423889,56.471390 85.620895,63.411839 91.474838,64.002975 
	C102.857826,65.152443 108.127075,60.760334 111.672760,53.225903 
	C115.699417,44.669403 112.276604,36.546524 102.422157,29.820850 
z"/>
<path fill="#4C6971" opacity="1.000000" stroke="none" 
	d="
M62.831436,98.000023 
	C65.187508,98.000046 67.099174,98.000046 69.010834,98.000046 
	C69.010300,98.428490 69.009766,98.856926 69.009224,99.285370 
	C64.031952,99.285370 59.054684,99.285370 54.077412,99.285370 
	C54.052948,98.856911 54.028484,98.428459 54.004017,98.000000 
	C56.798359,98.000000 59.592697,98.000000 62.831436,98.000023 
z"/>
<path fill="#4C6971" opacity="1.000000" stroke="none" 
	d="
M102.788513,29.942759 
	C112.276604,36.546524 115.699417,44.669403 111.672760,53.225903 
	C108.127075,60.760334 102.857826,65.152443 91.474838,64.002975 
	C85.620895,63.411839 78.423889,56.471390 77.105385,49.947876 
	C75.597771,42.488678 79.503761,33.973007 85.939384,30.533550 
	C91.336792,27.648960 96.790695,26.891777 102.788513,29.942759 
M88.931313,48.055004 
	C89.704185,49.025558 90.393417,50.734360 91.265068,50.833118 
	C94.309311,51.178040 97.416580,50.966663 100.553139,50.966663 
	C100.553139,47.652161 100.553139,44.984997 100.553139,42.269821 
	C96.529877,42.269821 92.952011,42.269821 89.192871,42.269821 
	C89.023140,44.097290 88.876320,45.678116 88.931313,48.055004 
M103.460365,42.219479 
	C103.297607,44.941586 103.134842,47.663692 102.895218,51.671284 
	C105.877480,50.789345 108.945320,50.783421 109.869278,49.373028 
	C110.942863,47.734219 110.838181,44.496426 109.879860,42.668125 
	C109.317558,41.595360 106.097900,41.915485 103.460365,42.219479 
M79.131821,43.003773 
	C78.800827,51.299740 79.105797,51.648354 85.813057,50.269238 
	C85.942589,47.445213 86.075256,44.552975 86.253403,40.669209 
	C83.656830,41.261913 81.554741,41.741749 79.131821,43.003773 
M98.534279,57.950516 
	C99.063271,56.517326 99.592262,55.084137 100.249771,53.302761 
	C96.458916,53.302761 93.407234,53.302761 88.659973,53.302761 
	C90.876610,56.801540 92.486076,59.341961 94.095551,61.882374 
	C95.435104,60.793922 96.774658,59.705471 98.534279,57.950516 
M99.004662,35.577629 
	C97.382530,33.772232 95.760399,31.966831 94.138260,30.161430 
	C92.611549,32.796452 91.084839,35.431473 89.040665,38.959602 
	C93.047394,38.959602 95.529701,39.094124 97.972054,38.841873 
	C98.439636,38.793579 98.749908,37.222233 99.004662,35.577629 
M101.904114,56.117603 
	C101.317970,57.527737 100.731819,58.937870 100.145676,60.348003 
	C100.524559,60.671898 100.903450,60.995789 101.282333,61.319683 
	C103.935638,58.964565 106.588943,56.609447 109.242241,54.254330 
	C108.845375,53.611774 108.448509,52.969215 108.051636,52.326660 
	C106.042511,53.337776 104.033394,54.348888 101.904114,56.117603 
M86.327515,32.912273 
	C84.621033,34.587944 82.914551,36.263611 80.850739,38.290165 
	C87.768501,40.562595 88.233383,36.265789 89.451302,32.049423 
	C88.355972,32.276024 87.641251,32.423882 86.327515,32.912273 
M104.079819,33.522003 
	C103.172340,32.981941 102.264862,32.441879 100.304123,31.274996 
	C101.247238,34.594879 101.868973,36.783455 102.510536,39.041836 
	C104.692757,38.926064 106.377884,38.836662 109.170189,38.688526 
	C107.190872,36.582920 105.928925,35.240463 104.079819,33.522003 
M88.083038,57.074383 
	C86.314095,52.225677 86.150055,52.152416 80.615318,54.291111 
	C83.276665,56.618587 85.675896,58.716824 88.075119,60.815060 
	C88.375816,60.538750 88.676514,60.262444 88.977203,59.986134 
	C88.760620,59.244408 88.544037,58.502678 88.083038,57.074383 
z"/>
<path fill="#000000" opacity="1.000000" stroke="none" 
	d="
M88.830406,47.656975 
	C88.876320,45.678116 89.023140,44.097290 89.192871,42.269821 
	C92.952011,42.269821 96.529877,42.269821 100.553139,42.269821 
	C100.553139,44.984997 100.553139,47.652161 100.553139,50.966663 
	C97.416580,50.966663 94.309311,51.178040 91.265068,50.833118 
	C90.393417,50.734360 89.704185,49.025558 88.830406,47.656975 
z"/>
<path fill="#000000" opacity="1.000000" stroke="none" 
	d="
M103.766960,41.914276 
	C106.097900,41.915485 109.317558,41.595360 109.879860,42.668125 
	C110.838181,44.496426 110.942863,47.734219 109.869278,49.373028 
	C108.945320,50.783421 105.877480,50.789345 102.895218,51.671284 
	C103.134842,47.663692 103.297607,44.941586 103.766960,41.914276 
z"/>
<path fill="#000000" opacity="1.000000" stroke="none" 
	d="
M79.292236,42.612679 
	C81.554741,41.741749 83.656830,41.261913 86.253403,40.669209 
	C86.075256,44.552975 85.942589,47.445213 85.813057,50.269238 
	C79.105797,51.648354 78.800827,51.299740 79.292236,42.612679 
z"/>
<path fill="#000000" opacity="1.000000" stroke="none" 
	d="
M98.324249,58.283768 
	C96.774658,59.705471 95.435104,60.793922 94.095551,61.882378 
	C92.486076,59.341961 90.876610,56.801540 88.659973,53.302761 
	C93.407234,53.302761 96.458916,53.302761 100.249771,53.302761 
	C99.592262,55.084137 99.063271,56.517326 98.324249,58.283768 
z"/>
<path fill="#000000" opacity="1.000000" stroke="none" 
	d="
M99.068710,35.965588 
	C98.749908,37.222233 98.439636,38.793579 97.972054,38.841873 
	C95.529701,39.094124 93.047394,38.959602 89.040665,38.959602 
	C91.084839,35.431473 92.611549,32.796452 94.138260,30.161430 
	C95.760399,31.966831 97.382530,33.772232 99.068710,35.965588 
z"/>
<path fill="#000000" opacity="1.000000" stroke="none" 
	d="
M101.964188,55.738804 
	C104.033394,54.348888 106.042511,53.337776 108.051636,52.326660 
	C108.448509,52.969215 108.845375,53.611774 109.242241,54.254330 
	C106.588943,56.609447 103.935638,58.964565 101.282333,61.319683 
	C100.903450,60.995789 100.524559,60.671898 100.145676,60.348003 
	C100.731819,58.937870 101.317970,57.527737 101.964188,55.738804 
z"/>
<path fill="#000000" opacity="1.000000" stroke="none" 
	d="
M86.627029,32.742004 
	C87.641251,32.423882 88.355972,32.276024 89.451302,32.049423 
	C88.233383,36.265789 87.768501,40.562595 80.850739,38.290165 
	C82.914551,36.263611 84.621033,34.587944 86.627029,32.742004 
z"/>
<path fill="#000000" opacity="1.000000" stroke="none" 
	d="
M104.373398,33.710003 
	C105.928925,35.240463 107.190872,36.582920 109.170189,38.688526 
	C106.377884,38.836662 104.692757,38.926064 102.510536,39.041836 
	C101.868973,36.783455 101.247238,34.594879 100.304123,31.274996 
	C102.264862,32.441879 103.172340,32.981941 104.373398,33.710003 
z"/>
<path fill="#000000" opacity="1.000000" stroke="none" 
	d="
M88.205246,57.417667 
	C88.544037,58.502678 88.760620,59.244408 88.977203,59.986134 
	C88.676514,60.262444 88.375816,60.538750 88.075119,60.815060 
	C85.675896,58.716824 83.276665,56.618587 80.615318,54.291111 
	C86.150055,52.152416 86.314095,52.225677 88.205246,57.417667 
z"/>
</svg>